# xmcd
#
# Track frame offsets: 
#        160
#        11452
#        25662
#        39962
#        57062
#        65737
#        75755
#        87000
#        101252
#        112845
#        125772
#        136457
#        153295
#        165387
#        177967
#        190320
#        207850
#        215492
#        226150
#        242425
#        250692
#        264102
#        274175
#        286115
#
# Disc length: 4119 seconds
#
# Revision: 1
# Processed by: cddbd v1.5.2PL0 Copyright (c) Steve Scherf et al.
# Submitted via: ExactAudioCopy v0.99pb5
#
DISCID=27101518
DTITLE=Various Artist - Союз 16
DYEAR=1995
DGENRE=Pop
TTITLE0=Филипп Киркоров - Милая
TTITLE1=Александр Буйнов - Падают Листья
TTITLE2=Лариса Долина - До Свидания
TTITLE3=Нэнси - Дым Сигарет С Ментолом
TTITLE4=А. Солодуха - Здравствуй, Чужая Милая
TTITLE5=Наталья Сенчукова - Не Плачьте, Девочки
TTITLE6=Диана - Не Говори
TTITLE7=Дадуда - Даду Внедрёж
TTITLE8=Юла И Джимми Джи - Рейвтайм
TTITLE9=МГК - Тайна
TTITLE10=В. Бажиновский - Ночь
TTITLE11=Павел Кашин - Русская Песня
TTITLE12=Линда - Мало Огня
TTITLE13=Валерий Меладзе - Так И Скажи
TTITLE14=Кристина Орбакайте - Пароходик Надежда
TTITLE15=Нэнси - Чистый Лист
TTITLE16=Каролина - Мама, Всё O'kей
TTITLE17=Евгений Кемеровский - Волга-Матушка
TTITLE18=Божья Коровка - Любовь Прошла
TTITLE19=Ирина Салтыкова - Серые Глаза
TTITLE20=Виктор Чайка - Куда Ты Денешься
TTITLE21=Светлана Лазарева - Лавочка
TTITLE22=Золотое Кольцо - И Льётся Песня
TTITLE23=Алла Пугачёва - Мэри
EXTD=
EXTT0=
EXTT1=
EXTT2=
EXTT3=
EXTT4=
EXTT5=
EXTT6=
EXTT7=
EXTT8=
EXTT9=
EXTT10=
EXTT11=
EXTT12=
EXTT13=
EXTT14=
EXTT15=
EXTT16=
EXTT17=
EXTT18=
EXTT19=
EXTT20=
EXTT21=
EXTT22=
EXTT23=
PLAYORDER=
